# xmcd
# 
# Track frame offsets:
#     150
#     49216
#     57624
#     88683
#     118997
#     168494
#     200306
# 
# Disc length: 2835
# 
# Revision: 1
# Processed by: cddbd v1.5.2PL0 Copyright (c) Steve Scherf et al.
# Submitted via: BonkEnc v1.0.5
# 
DISCID=650b1107
DTITLE=Miroslav Vitous - Infinite Search
DYEAR=1969
DGENRE=Jazz
TTITLE0=Freedom Jazz Dance
TTITLE1=Mountain In The Clouds
TTITLE2=When Face Gets Pale
TTITLE3=Infinite Search
TTITLE4=I Will Tell Him On You
TTITLE5=Epilogue
TTITLE6=Cerecha
EXTD=YEAR: 1969
EXTT0=
EXTT1=
EXTT2=
EXTT3=
EXTT4=
EXTT5=
EXTT6=
PLAYORDER=
